<svg width="325" height="121" viewBox="0 0 325 121" fill="none" xmlns="http://www.w3.org/2000/svg">
<rect width="325" height="121" fill="#E5E5E5"/>
<rect width="438" height="812" transform="translate(-57 -267)" fill="#F7F7F7"/>
<path d="M171.112 68.736H152.873H151.816V68.4175V65.664C150.603 66.5623 149.58 67.2558 148.745 67.7443C148.391 67.9518 148.07 68.1224 147.784 68.256C144.392 69.856 140.872 70.656 137.224 70.656C133.499 70.656 130.286 70.016 127.584 68.736C126.712 68.3227 125.893 67.8427 125.128 67.296C121.672 64.736 119.944 60.992 119.944 56.064C119.944 50.944 122.6 46.688 127.912 43.296C129.192 42.464 131.08 41.536 133.576 40.512C136.072 39.424 139.24 38.176 143.08 36.768C148.712 34.72 151.656 32.768 151.912 30.912V28.416C151.912 26.432 151.272 24.864 149.992 23.712C148.712 22.496 147.08 21.888 145.096 21.888C144.52 21.888 143.88 22.048 143.176 22.368C142.536 22.624 141.928 22.976 141.352 23.424C140.776 23.872 140.296 24.384 139.912 24.96C139.528 25.536 139.336 26.112 139.336 26.688C139.336 28.032 139.912 28.992 141.064 29.568C139.656 31.552 137.288 32.544 133.96 32.544C130.568 32.544 127.688 31.488 125.32 29.376C122.888 27.136 121.672 24.416 121.672 21.216C121.672 20.704 121.672 20.256 121.672 19.872C121.736 19.488 121.8 19.136 121.864 18.816C124.04 19.328 125.864 19.584 127.336 19.584C127.912 19.584 129 19.456 130.6 19.2C132.264 18.88 134.536 18.464 137.416 17.952C140.36 17.376 142.92 17.088 145.096 17.088C152.072 17.088 157.352 18.016 160.936 19.872C165.736 22.368 168.136 26.72 168.136 32.928V52.109V62.688C168.136 64.8382 168.911 66.6632 170.462 68.163C170.666 68.3596 170.882 68.5506 171.112 68.736ZM151.816 54.336V37.248L142.696 43.104C139.56 45.664 137.992 49.504 137.992 54.624C137.992 60.896 140.264 64.032 144.808 64.032C147.24 64.032 149.064 62.944 150.28 60.768C151.304 59.168 151.816 57.024 151.816 54.336Z" fill="#EA393D"/>
<path d="M252.438 54.432C252.438 59.936 249.878 64.096 244.758 66.912C240.598 69.024 235.542 70.08 229.59 70.08C222.038 70.08 215.894 67.616 211.158 62.688C206.422 57.568 204.053 51.232 204.053 43.68C204.053 36.192 206.422 29.888 211.158 24.768C215.958 19.648 222.102 17.088 229.59 17.088C230.998 17.088 232.277 17.12 233.43 17.184C234.582 17.248 235.669 17.344 236.693 17.472C239.445 17.792 241.557 18.048 243.029 18.24C244.565 18.432 245.493 18.528 245.814 18.528C247.734 18.528 249.558 18.272 251.286 17.76C251.35 18.08 251.382 18.432 251.382 18.816C251.445 19.2 251.478 19.648 251.478 20.16C251.478 23.36 250.262 26.08 247.829 28.32C245.397 30.432 242.518 31.488 239.189 31.488C236.053 31.488 233.686 30.496 232.085 28.512C233.237 27.936 233.814 26.976 233.814 25.632C233.814 23.136 232.406 21.888 229.59 21.888C224.47 21.888 221.91 25.472 221.91 32.64V51.648C221.91 55.296 222.934 58.528 224.982 61.344C227.158 64.48 230.038 66.048 233.622 66.048C236.885 66.048 239.542 64.736 241.59 62.112C243.446 59.68 244.374 56.8 244.374 53.472C244.374 50.016 242.934 47.84 240.053 46.944C241.077 45.728 242.486 45.12 244.277 45.12C249.717 45.12 252.438 48.224 252.438 54.432Z" fill="#EA393D"/>
<path d="M117.072 118.736H80.784C83.568 116.528 84.768 113.504 84.384 109.664L76.608 34.064L53.568 118.736H42.768L18.432 35.504L14.256 107.072C13.968 111.392 16.08 115.28 20.592 118.736H0C4.32 115.472 6.624 111.584 6.912 107.072L12.672 27.008C12.96 23.552 11.472 20.528 8.208 17.936H40.176L57.888 76.688L74.736 17.936H105.84C102.48 20.72 100.992 23.744 101.376 27.008L111.744 109.664C112.224 113.312 114 116.336 117.072 118.736Z" fill="#EA393D"/>
<path d="M276.25 93.68H243.035V101.648C243.035 105.296 244.186 108.56 246.49 111.44C248.986 114.512 252.027 116.048 255.611 116.048C262.522 116.048 265.979 112.848 265.979 106.448C265.979 102.992 264.539 100.816 261.659 99.92C262.682 98.704 264.091 98.096 265.883 98.096C271.323 98.096 274.043 101.04 274.043 106.928C274.043 115.696 266.746 120.08 252.154 120.08C244.026 120.08 237.531 117.68 232.667 112.88C227.674 108.016 225.178 101.616 225.178 93.68C225.178 86.192 227.547 79.888 232.283 74.768C237.083 69.648 243.227 67.088 250.715 67.088C254.811 67.088 258.427 67.696 261.562 68.912C264.763 70.128 267.451 71.888 269.626 74.192C271.802 76.496 273.434 79.312 274.522 82.64C275.674 85.904 276.25 89.584 276.25 93.68ZM257.242 89.552V83.312C257.242 75.696 255.067 71.888 250.715 71.888C245.595 71.888 243.035 75.472 243.035 82.64V89.552H257.242Z" fill="#EA393D"/>
<path d="M151.816 68.4175V65.664C150.603 66.5623 149.58 67.2558 148.745 67.7443C149.84 67.9295 150.864 68.1539 151.816 68.4175Z" fill="#EA393D"/>
<path fill-rule="evenodd" clip-rule="evenodd" d="M152.873 68.736H151.816V68.4175C150.864 68.1539 149.84 67.9295 148.745 67.7443C148.391 67.9518 148.07 68.1224 147.784 68.256C144.392 69.856 140.872 70.656 137.224 70.656C133.499 70.656 130.286 70.016 127.584 68.736L125.287 69.2C123.688 69.456 122.6 69.584 122.023 69.584C120.551 69.584 118.728 69.328 116.551 68.816C116.487 69.136 116.424 69.488 116.359 69.872V71.216C116.359 74.416 117.576 77.136 120.007 79.376C122.376 81.488 125.256 82.544 128.648 82.544C131.976 82.544 134.343 81.552 135.751 79.568C134.6 78.992 134.023 78.032 134.023 76.688C134.023 76.112 134.215 75.536 134.6 74.96C134.984 74.384 135.464 73.872 136.04 73.424C136.616 72.976 137.223 72.624 137.863 72.368C138.567 72.048 139.208 71.888 139.784 71.888C141.768 71.888 143.4 72.496 144.68 73.712C145.96 74.864 146.6 76.432 146.6 78.416V80.912C146.344 82.768 143.4 84.72 137.768 86.768C133.928 88.176 130.76 89.424 128.264 90.512C125.768 91.536 123.88 92.464 122.6 93.296C117.288 96.688 114.632 100.944 114.632 106.064C114.632 110.992 116.359 114.736 119.815 117.296C122.951 119.536 126.983 120.656 131.911 120.656C135.559 120.656 139.079 119.856 142.471 118.256C143.431 117.808 144.775 116.944 146.503 115.664V118.736H165.799C163.815 117.136 162.824 115.12 162.824 112.688V82.928C162.824 76.72 160.424 72.368 155.624 69.872C154.797 69.444 153.88 69.0653 152.873 68.736ZM146.503 87.248V104.336C146.503 107.024 145.992 109.168 144.967 110.768C143.751 112.944 141.927 114.032 139.495 114.032C134.951 114.032 132.68 110.896 132.68 104.624C132.68 99.504 134.247 95.664 137.383 93.104L146.503 87.248Z" fill="#EA393D"/>
<path fill-rule="evenodd" clip-rule="evenodd" d="M196.991 66.336C199.103 64.16 200.159 61.344 200.159 57.888C199.135 59.296 197.887 60 196.415 60C193.535 60 192.095 57.408 192.095 52.224V22.848H200.063V18.432H192.095V14.88C192.095 8.992 194.111 4.032 198.143 0C192.959 0 187.935 3.104 183.071 9.312C176.415 17.696 172.671 22.208 171.839 22.848H175.775V51.5772L167.486 51.536C167.716 51.7214 167.933 51.9124 168.136 52.109C169.687 53.6088 170.462 55.4338 170.462 57.584V68.163V112.688C170.462 115.184 169.47 117.2 167.486 118.736H189.758C187.774 117.136 186.782 115.12 186.782 112.688V91.472L199.838 112.688C200.158 113.2 200.318 113.808 200.318 114.512C200.318 116.176 199.582 117.584 198.11 118.736H224.03C223.262 118.096 222.622 117.584 222.11 117.2C221.598 116.816 221.214 116.496 220.958 116.24C219.422 114.832 218.398 113.648 217.886 112.688L202.526 87.632C204.574 86.736 206.334 85.904 207.806 85.136C209.342 84.304 210.558 83.568 211.454 82.928C217.406 78.832 220.382 74.032 220.382 68.528H197.246C197.438 68.976 197.63 69.392 197.822 69.776C198.014 70.16 198.174 70.544 198.302 70.928C199.006 72.912 199.358 74.384 199.358 75.344C199.358 78.736 198.11 81.616 195.614 83.984C193.246 86.352 190.302 87.536 186.782 87.536V69.4515C187.41 69.5505 188.061 69.6 188.735 69.6C192.191 69.6 194.943 68.512 196.991 66.336ZM186.782 69.4515C183.53 68.9392 180.885 67.1007 178.847 63.936C176.799 60.544 175.775 56.64 175.775 52.224V51.5772L186.782 51.632V69.4515Z" fill="#EA393D"/>
<path d="M175.775 52.224C175.775 56.64 176.799 60.544 178.847 63.936C180.885 67.1007 183.53 68.9392 186.782 69.4515V51.632L175.775 51.5772V52.224Z" fill="#EA393D"/>
<path d="M304.782 68.736H299.189V74.096C300.705 71.6896 302.569 69.9029 304.782 68.736Z" fill="#EA393D"/>
<path fill-rule="evenodd" clip-rule="evenodd" d="M307.986 67.5356C306.827 66.1628 306.248 64.5469 306.248 62.688V38.784C306.248 32 305.096 26.912 302.792 23.52C299.976 19.488 295.4 17.472 289.064 17.472C283.368 17.472 278.92 19.84 275.72 24.576V1.632L256.424 1.536C258.408 3.136 259.4 5.152 259.4 7.584V62.688C259.4 65.184 258.408 67.2 256.424 68.736H278.696C276.712 67.136 275.72 65.12 275.72 62.688V31.68C277.704 27.072 280.328 24.768 283.592 24.768C287.88 24.768 290.024 27.392 290.024 32.64V62.688C290.024 65.0226 289.156 66.9373 287.42 68.432H279.892C281.876 70.032 282.868 72.048 282.868 74.48V112.688C282.868 115.184 281.876 117.2 279.892 118.736H302.164C300.18 117.136 299.189 115.12 299.189 112.688V81.68C301.365 76.816 303.54 74.384 305.716 74.384C307.764 74.384 308.789 76.464 308.789 80.624C308.789 83.248 307.924 86.608 306.197 90.704L324.533 88.688L324.82 81.68C324.948 78.224 324.021 75.088 322.036 72.272C319.604 68.816 316.245 67.088 311.957 67.088C310.549 67.088 309.226 67.2372 307.986 67.5356ZM299.189 68.736V68.432H287.42C287.3 68.5353 287.176 68.6367 287.048 68.736H299.189ZM299.189 68.736H304.782C302.569 69.9029 300.705 71.6896 299.189 74.096V68.736Z" fill="#EA393D"/>
<path d="M299.189 68.736V68.432H287.42C287.3 68.5353 287.176 68.6367 287.048 68.736H299.189Z" fill="#EA393D"/>
</svg>
